<svg width="1200" height="840" viewBox="0 0 1200 840" xmlns="http://www.w3.org/2000/svg" role="img" aria-label="Warm kumpir placeholder illustration">
  <defs>
    <linearGradient id="bg" x1="0" y1="0" x2="1" y2="1">
      <stop offset="0%" stop-color="#fff4dd"/>
      <stop offset="100%" stop-color="#f2c67f"/>
    </linearGradient>
    <radialGradient id="plate" cx="50%" cy="45%" r="50%">
      <stop offset="0%" stop-color="#fffef8"/>
      <stop offset="100%" stop-color="#e8d7c3"/>
    </radialGradient>
    <linearGradient id="potato" x1="0" y1="0" x2="1" y2="1">
      <stop offset="0%" stop-color="#d18a47"/>
      <stop offset="100%" stop-color="#9b5525"/>
    </linearGradient>
  </defs>

  <rect width="1200" height="840" fill="url(#bg)"/>
  <circle cx="1090" cy="110" r="170" fill="#ffdca2" fill-opacity="0.6"/>
  <circle cx="130" cy="730" r="200" fill="#dfe8c8" fill-opacity="0.55"/>
  <ellipse cx="600" cy="575" rx="410" ry="190" fill="url(#plate)"/>
  <ellipse cx="600" cy="600" rx="360" ry="140" fill="#d7c0a4" fill-opacity="0.45"/>

  <ellipse cx="600" cy="430" rx="290" ry="200" fill="url(#potato)"/>
  <ellipse cx="600" cy="400" rx="250" ry="160" fill="#c57639"/>
  <ellipse cx="600" cy="390" rx="190" ry="120" fill="#f7e2b5"/>

  <circle cx="520" cy="360" r="38" fill="#f7c94a"/>
  <circle cx="670" cy="340" r="32" fill="#7cb54d"/>
  <circle cx="600" cy="320" r="28" fill="#dc5d3f"/>
  <circle cx="730" cy="400" r="34" fill="#4c6b3d"/>
  <circle cx="470" cy="430" r="26" fill="#e8f2d8"/>
  <circle cx="560" cy="445" r="30" fill="#f7c94a"/>
  <circle cx="650" cy="445" r="28" fill="#dc5d3f"/>

  <path d="M490 305 C530 250 670 250 710 305" stroke="#fff2d5" stroke-width="14" stroke-linecap="round" fill="none"/>
  <path d="M420 520 C520 585 680 585 780 520" stroke="#9b5525" stroke-opacity="0.34" stroke-width="22" stroke-linecap="round" fill="none"/>
</svg>
