<svg width="1200" height="840" viewBox="0 0 1200 840" xmlns="http://www.w3.org/2000/svg" role="img" aria-label="Toppings board placeholder illustration">
  <defs>
    <linearGradient id="bg" x1="0" y1="0" x2="1" y2="1">
      <stop offset="0%" stop-color="#fdeecf"/>
      <stop offset="100%" stop-color="#f2c078"/>
    </linearGradient>
    <linearGradient id="board" x1="0" y1="0" x2="1" y2="1">
      <stop offset="0%" stop-color="#7b4a2c"/>
      <stop offset="100%" stop-color="#4b2a16"/>
    </linearGradient>
  </defs>

  <rect width="1200" height="840" fill="url(#bg)"/>
  <rect x="120" y="160" width="960" height="520" rx="36" fill="url(#board)"/>
  <rect x="160" y="200" width="880" height="440" rx="24" fill="#8c5a37" opacity="0.5"/>

  <circle cx="320" cy="320" r="90" fill="#fff8ef"/>
  <circle cx="600" cy="320" r="90" fill="#fff8ef"/>
  <circle cx="880" cy="320" r="90" fill="#fff8ef"/>
  <circle cx="320" cy="520" r="90" fill="#fff8ef"/>
  <circle cx="600" cy="520" r="90" fill="#fff8ef"/>
  <circle cx="880" cy="520" r="90" fill="#fff8ef"/>

  <circle cx="320" cy="320" r="38" fill="#7ea555"/>
  <circle cx="600" cy="320" r="38" fill="#d05d3f"/>
  <circle cx="880" cy="320" r="38" fill="#f4be52"/>
  <circle cx="320" cy="520" r="38" fill="#f6d979"/>
  <circle cx="600" cy="520" r="38" fill="#4d6e40"/>
  <circle cx="880" cy="520" r="38" fill="#d77247"/>

  <rect x="530" y="90" width="140" height="42" rx="16" fill="#f8d39a"/>
</svg>
